HIERARCHY
ROOT Hips
{
	OFFSET -0.001795 -0.223333 0.028219
	CHANNELS 6 Xposition Yposition Zposition Zrotation Yrotation Xrotation 
	JOINT LeftUpLeg
	{
		OFFSET 0.069520 -0.091406 -0.006815
		CHANNELS 3 Zrotation Yrotation Xrotation
		JOINT LeftLeg
		{
			OFFSET 0.034277 -0.375199 -0.004496
			CHANNELS 3 Zrotation Yrotation Xrotation
			JOINT LeftFoot
			{
				OFFSET -0.013596 -0.397961 -0.043693
				CHANNELS 3 Zrotation Yrotation Xrotation
				JOINT LeftToe
				{
					OFFSET 0.026358 -0.055791 0.119288
					CHANNELS 3 Zrotation Yrotation Xrotation
					End Site
					{
						OFFSET 0.000000 0.000000 0.000000
					}
				}
			}
		}
	}
	JOINT RightUpLeg
	{
		OFFSET -0.067670 -0.090522 -0.004320
		CHANNELS 3 Zrotation Yrotation Xrotation
		JOINT RightLeg
		{
			OFFSET -0.038290 -0.382569 -0.008850
			CHANNELS 3 Zrotation Yrotation Xrotation
			JOINT RightFoot
			{
				OFFSET 0.015774 -0.398415 -0.042312
				CHANNELS 3 Zrotation Yrotation Xrotation
				JOINT RightToe
				{
					OFFSET -0.025372 -0.048144 0.123348
					CHANNELS 3 Zrotation Yrotation Xrotation
					End Site
					{
						OFFSET 0.000000 0.000000 0.000000
					}
				}
			}
		}
	}
	JOINT Spine
	{
		OFFSET -0.002533 0.108963 -0.026696
		CHANNELS 3 Zrotation Yrotation Xrotation
		JOINT Spine1
		{
			OFFSET 0.005487 0.135180 0.001092
			CHANNELS 3 Zrotation Yrotation Xrotation
			JOINT Spine2
			{
				OFFSET 0.001457 0.052922 0.025425
				CHANNELS 3 Zrotation Yrotation Xrotation
				JOINT Neck
				{
					OFFSET -0.002778 0.213870 -0.042857
					CHANNELS 3 Zrotation Yrotation Xrotation
					JOINT Head
					{
						OFFSET 0.005152 0.064970 0.051349
						CHANNELS 3 Zrotation Yrotation Xrotation
						End Site
						{
							OFFSET 0.000000 0.000000 0.000000
						}
					}
				}
				JOINT LeftShoulder
				{
					OFFSET 0.078845 0.121749 -0.034090
					CHANNELS 3 Zrotation Yrotation Xrotation
					JOINT LeftArm
					{
						OFFSET 0.090977 0.030469 -0.008868
						CHANNELS 3 Zrotation Yrotation Xrotation
						JOINT LeftForeArm
						{
							OFFSET 0.259612 -0.012772 -0.027456
							CHANNELS 3 Zrotation Yrotation Xrotation
							JOINT LeftHand
							{
								OFFSET 0.249234 0.008986 -0.001171
								CHANNELS 3 Zrotation Yrotation Xrotation
								End Site
								{
									OFFSET 0.000000 0.000000 0.000000
								}
							}
						}
					}
				}
				JOINT RightShoulder
				{
					OFFSET -0.081759 0.118833 -0.038615
					CHANNELS 3 Zrotation Yrotation Xrotation
					JOINT RightArm
					{
						OFFSET -0.096012 0.032551 -0.009143
						CHANNELS 3 Zrotation Yrotation Xrotation
						JOINT RightForeArm
						{
							OFFSET -0.253742 -0.013329 -0.021401
							CHANNELS 3 Zrotation Yrotation Xrotation
							JOINT RightHand
							{
								OFFSET -0.255298 0.007772 -0.005559
								CHANNELS 3 Zrotation Yrotation Xrotation
								End Site
								{
									OFFSET 0.000000 0.000000 0.000000
								}
							}
						}
					}
				}
			}
		}
	}
}
MOTION
Frames: 10
Frame Time: 0.050000
0.024190 0.961447 0.022975 -0.928752 0.655921 2.144641 1.626167 0.237393 3.512621 1.863533 0.163663 -7.286306 -0.222247 6.235761 18.251692 0.000000 0.000000 0.000000 -1.589335 0.147489 -1.202751 -3.455920 0.419521 0.732319 4.696607 5.107924 10.493991 0.000000 0.000000 0.000000 6.121958 0.844951 -10.035958 -0.735378 0.342686 0.368006 -5.535166 5.188937 11.510820 7.627318 -3.072352 -15.578907 0.000000 0.000000 0.000000 20.015334 -23.247001 5.766546 -0.451505 -35.519703 -2.633422 98.649779 3.315826 0.386023 0.000000 0.000000 0.000000 -13.406498 14.097359 3.325976 10.400407 34.237626 0.618179 -101.937682 10.269404 -5.120952 0.000000 0.000000 0.000000 
0.024343 0.961056 0.024171 -0.946242 1.332020 1.982614 1.632589 0.237715 3.574364 1.998767 0.149243 -7.115605 -0.523571 5.829316 17.972318 0.000000 0.000000 0.000000 -1.643256 0.140654 -1.139020 -3.123157 0.425542 1.337512 4.196833 4.410618 10.059555 0.000000 0.000000 0.000000 5.970790 0.820183 -9.984374 -0.399119 0.174285 0.553945 -5.687334 5.117154 11.427494 7.391072 -2.983123 -15.023495 0.000000 0.000000 0.000000 19.104203 -22.942082 5.860987 0.329818 -35.540124 -2.830580 99.066554 3.794429 0.749375 0.000000 0.000000 0.000000 -12.255625 13.677486 3.341348 11.235719 33.209076 0.709530 -103.167852 11.983624 -7.089903 0.000000 0.000000 0.000000 
0.024456 0.960993 0.025636 -0.914226 1.992704 1.953953 1.691747 0.228554 3.553686 1.946183 0.147110 -7.023564 -0.849068 5.418139 17.835124 0.000000 0.000000 0.000000 -1.788038 0.130085 -1.012462 -2.791509 0.392030 1.389939 3.901565 3.812950 10.215111 0.000000 0.000000 0.000000 5.669719 0.802960 -10.158750 0.047758 -0.053722 0.840996 -5.848385 5.071588 11.201203 7.190627 -2.919580 -14.410179 0.000000 0.000000 0.000000 18.342105 -22.508937 5.922107 1.110767 -35.436532 -3.015753 99.393375 4.468229 1.309617 0.000000 0.000000 0.000000 -10.736185 13.263141 3.405760 12.570074 31.347545 0.799513 -104.701853 13.926777 -9.448846 0.000000 0.000000 0.000000 
0.024553 0.960644 0.027364 -0.978623 2.775127 1.703854 2.048577 0.217872 3.743778 1.589530 0.155930 -6.878450 -1.224617 4.905129 17.551348 0.000000 0.000000 0.000000 -1.953479 0.096747 -0.634517 -2.378944 0.360066 1.645644 3.723385 3.651020 10.023473 0.000000 0.000000 0.000000 5.345699 0.763731 -10.084278 0.511992 -0.282315 0.827294 -5.737252 5.000314 11.160884 6.979175 -2.930299 -13.400610 0.000000 0.000000 0.000000 17.213008 -21.868646 5.958471 1.734237 -35.625309 -3.200415 99.523450 4.635850 1.341185 0.000000 0.000000 0.000000 -9.089378 12.335692 3.335905 13.870093 29.436973 0.817822 -106.723174 16.597591 -12.995788 0.000000 0.000000 0.000000 
0.024715 0.960432 0.029176 -0.941877 3.385453 1.564853 2.107042 0.215965 3.829462 1.523952 0.151067 -6.707220 -1.514018 4.514104 17.361832 0.000000 0.000000 0.000000 -1.969200 0.055871 -0.184593 -2.203656 0.341232 1.666119 3.274650 3.011476 9.596242 0.000000 0.000000 0.000000 5.021317 0.738545 -10.162108 0.872804 -0.469359 1.002959 -5.645112 4.798934 10.846227 6.849361 -2.988365 -12.527318 0.000000 0.000000 0.000000 16.157540 -21.037274 5.923416 2.486880 -35.689488 -3.375045 99.488027 4.956407 1.653270 0.000000 0.000000 0.000000 -7.498824 11.615314 3.320732 14.644043 27.381774 0.700073 -108.737186 18.898122 -16.489036 0.000000 0.000000 0.000000 
0.024990 0.960114 0.030691 -0.944935 3.853828 1.382921 2.345472 0.193597 3.744155 1.180905 0.143727 -6.150464 -1.702856 4.205783 17.055313 0.000000 0.000000 0.000000 -2.244897 0.023212 0.227745 -1.827842 0.301083 1.779944 3.268180 3.248869 9.197808 0.000000 0.000000 0.000000 4.715586 0.720536 -10.297451 1.260471 -0.685606 1.423702 -5.496271 4.545060 10.344671 6.249951 -2.777338 -11.411985 0.000000 0.000000 0.000000 15.252071 -20.158656 5.838813 2.987196 -36.100014 -3.524966 99.364248 5.096529 1.864590 0.000000 0.000000 0.000000 -6.185534 11.012307 3.300143 15.147248 26.242096 0.631266 -110.874830 21.171245 -20.327555 0.000000 0.000000 0.000000 
0.025470 0.959807 0.031588 -0.850754 4.009810 1.304332 2.349138 0.193100 3.753268 0.976170 0.145293 -5.934216 -1.762681 4.086985 16.901997 0.000000 0.000000 0.000000 -2.438119 0.002221 0.513115 -1.713010 0.278010 1.611125 3.221251 3.218189 9.094141 0.000000 0.000000 0.000000 4.660538 0.714528 -10.291657 1.449234 -0.779985 1.420520 -5.490406 4.449875 10.194477 6.252299 -2.937235 -10.564048 0.000000 0.000000 0.000000 14.878970 -19.561780 5.754390 3.414875 -36.297389 -3.646399 98.861210 6.026275 2.869306 0.000000 0.000000 0.000000 -5.695997 10.786562 3.287176 15.341370 25.622025 0.579439 -112.541849 22.210190 -22.456534 0.000000 0.000000 0.000000 
0.026084 0.959609 0.031805 -0.802404 4.357813 1.173036 2.285666 0.199431 3.832934 0.992926 0.141912 -5.872985 -1.926044 3.855613 16.780417 0.000000 0.000000 0.000000 -2.667104 -0.012884 0.723122 -1.606872 0.270132 1.706033 3.306081 3.513860 8.938986 0.000000 0.000000 0.000000 4.536104 0.706129 -10.362676 1.793311 -0.969691 1.676362 -5.417308 4.106042 9.980070 6.108601 -3.086143 -9.306623 0.000000 0.000000 0.000000 14.107153 -18.969544 5.668385 3.473486 -36.423877 -3.647567 98.857789 6.577890 3.591291 0.000000 0.000000 0.000000 -5.717206 10.626980 3.243556 15.122641 25.966359 0.590775 -112.881778 22.216812 -22.743645 0.000000 0.000000 0.000000 
0.026798 0.959417 0.031518 -0.664112 4.597344 1.098813 2.090748 0.218750 3.979221 1.030234 0.146905 -6.054035 -2.061955 3.683437 16.763410 0.000000 0.000000 0.000000 -2.960147 -0.016183 0.817104 -1.593063 0.268535 1.700325 3.447411 3.810385 9.001107 0.000000 0.000000 0.000000 4.528525 0.707717 -10.437813 2.051594 -1.119216 1.945717 -5.462901 4.088774 9.690841 5.955456 -3.177732 -8.175104 0.000000 0.000000 0.000000 13.554169 -18.582223 5.635589 2.794520 -36.697467 -3.522634 98.228815 7.570440 4.577235 0.000000 0.000000 0.000000 -6.246010 10.586679 3.174447 15.459673 26.637840 0.734707 -113.878749 22.183110 -22.991885 0.000000 0.000000 0.000000 
0.027550 0.959185 0.030760 -0.547534 5.116691 0.846730 2.144598 0.216822 4.053810 0.715772 0.155505 -5.886304 -2.325400 3.316362 16.619748 0.000000 0.000000 0.000000 -3.104453 -0.037249 1.051183 -1.648389 0.279963 1.763151 3.350959 3.618138 9.108462 0.000000 0.000000 0.000000 4.506386 0.692173 -10.307768 2.406666 -1.318678 2.154823 -5.405613 3.714585 9.525735 5.898407 -3.365455 -7.035312 0.000000 0.000000 0.000000 12.504670 -18.128050 5.573958 1.638290 -36.812756 -3.230193 97.813986 7.552747 4.619543 0.000000 0.000000 0.000000 -6.457936 10.653141 3.177811 15.370143 27.592257 0.831278 -114.408936 21.682957 -22.553912 0.000000 0.000000 0.000000 
